<?xml version="1.0" standalone="no"?>
<!DOCTYPE svg PUBLIC "-//W3C//DTD SVG 20010904//EN"
 "http://www.w3.org/TR/2001/REC-SVG-20010904/DTD/svg10.dtd">
<svg version="1.0" xmlns="http://www.w3.org/2000/svg"
 width="2240.000000pt" height="2240.000000pt" viewBox="0 0 2240.000000 2240.000000"
 preserveAspectRatio="xMidYMid meet">

<g transform="translate(0.000000,2240.000000) scale(0.100000,-0.100000)"
fill="#000000" stroke="none">
<path d="M9044 17715 c3 -8 34 -104 69 -212 36 -109 250 -765 476 -1458 227
-693 417 -1273 422 -1290 8 -26 8 -28 -4 -15 -51 55 -1835 2039 -1846 2053
-13 16 -8 25 55 91 38 40 -60 -59 -217 -218 -158 -160 -944 -961 -1747 -1781
l-1461 -1490 0 -2420 0 -2420 667 672 c1426 1436 4783 4803 4790 4804 4 0 219
-631 479 -1403 259 -771 473 -1405 475 -1409 2 -3 644 643 1428 1435 783 793
2133 2157 2999 3031 866 875 1676 1692 1800 1818 l225 227 -4308 0 c-3808 0
-4307 -2 -4302 -15z"/>
<path d="M8560 17243 l-55 -58 58 55 c53 50 62 60 54 60 -1 0 -27 -26 -57 -57z"/>
<path d="M16050 12298 c-2556 -2533 -3740 -3710 -3740 -3717 0 -3 525 -588
1166 -1300 l1166 -1294 -44 -46 c-71 -77 488 491 1785 1814 l1226 1250 0 2418
c1 1329 0 2417 -1 2417 -2 0 -703 -694 -1558 -1542z"/>
<path d="M9323 9298 c-1029 -1041 -2479 -2507 -3222 -3258 l-1351 -1365 4302
-3 c2366 -1 4303 -1 4304 1 2 1 -55 178 -126 392 -100 305 -530 1619 -1032
3154 -17 51 -36 103 -42 115 -6 13 -222 660 -481 1439 -258 779 -472 1417
-475 1417 -3 0 -848 -852 -1877 -1892z"/>
</g>
</svg>
